<?xml version="1.0" standalone="no"?>
<!DOCTYPE svg PUBLIC "-//W3C//DTD SVG 20010904//EN"
 "http://www.w3.org/TR/2001/REC-SVG-20010904/DTD/svg10.dtd">
<svg version="1.0" xmlns="http://www.w3.org/2000/svg"
 width="1024.000000pt" height="1024.000000pt" viewBox="0 0 1024.000000 1024.000000"
 preserveAspectRatio="xMidYMid meet">
<metadata>
Created by potrace 1.14, written by Peter Selinger 2001-2017
</metadata>
<g transform="translate(0.000000,1024.000000) scale(0.100000,-0.100000)"
fill="#000000" stroke="none">
<path d="M5007 10174 c-1 -1 -67 -4 -147 -8 -80 -3 -165 -8 -189 -10 -24 -3
-74 -7 -110 -10 -36 -4 -77 -8 -91 -11 -14 -2 -45 -7 -70 -10 -25 -3 -54 -7
-65 -9 -11 -2 -40 -7 -65 -11 -79 -13 -93 -16 -195 -36 -528 -105 -1131 -342
-1595 -627 -258 -158 -515 -348 -740 -546 -103 -92 -393 -390 -486 -501 -175
-209 -378 -492 -479 -668 -20 -34 -40 -69 -45 -77 -136 -217 -331 -656 -435
-980 -44 -140 -118 -418 -130 -490 -3 -19 -10 -51 -15 -70 -5 -19 -11 -48 -13
-65 -3 -16 -10 -61 -17 -100 -49 -306 -64 -503 -64 -840 0 -280 12 -468 46
-695 6 -41 12 -84 13 -95 5 -41 36 -203 56 -295 133 -607 391 -1213 738 -1728
55 -83 217 -304 259 -354 258 -309 499 -550 762 -765 291 -237 634 -457 955
-611 61 -30 121 -59 135 -67 61 -32 364 -150 516 -200 143 -48 380 -114 456
-129 13 -2 52 -11 88 -19 36 -9 85 -18 110 -22 25 -3 52 -8 60 -10 16 -4 28
-6 190 -29 243 -34 355 -41 680 -41 290 0 406 5 565 25 44 5 103 12 130 16
100 11 262 39 400 69 184 40 579 154 670 195 11 4 74 30 140 55 434 171 902
447 1298 768 254 206 533 482 738 732 36 44 79 100 94 125 15 25 31 47 34 50
9 8 76 104 166 240 245 371 450 799 584 1224 21 65 43 121 48 125 11 6 38 92
72 231 35 144 39 168 30 177 -4 4 -4 26 1 48 5 22 11 54 13 70 37 229 44 282
62 478 22 241 22 678 0 855 -2 15 -6 61 -10 102 -4 41 -9 78 -12 82 -2 5 3 11
11 14 16 6 16 11 1 94 -2 14 -7 45 -10 70 -8 66 -31 197 -41 233 -3 9 -11 17
-17 17 -8 0 -20 36 -31 88 -136 638 -470 1360 -881 1907 -240 319 -562 655
-864 900 -558 452 -1195 779 -1881 965 -81 22 -363 85 -420 94 -19 3 -44 7
-55 10 -11 2 -45 7 -75 11 -30 4 -62 9 -70 10 -29 5 -173 22 -255 30 -117 11
-540 26 -548 19z"/>
</g>
</svg>
